<?xml version="1.0" encoding="UTF-8" standalone="no"?>
<!-- Created with Inkscape (http://www.inkscape.org/) -->

<svg
   width="320mm"
   height="80mm"
   viewBox="0 0 320 80"
   version="1.1"
   id="svg1"
   inkscape:version="1.4.2 (ebf0e940, 2025-05-08)"
   sodipodi:docname="FTorch.svg"
   xmlns:inkscape="http://www.inkscape.org/namespaces/inkscape"
   xmlns:sodipodi="http://sodipodi.sourceforge.net/DTD/sodipodi-0.dtd"
   xmlns="http://www.w3.org/2000/svg"
   xmlns:svg="http://www.w3.org/2000/svg">
  <sodipodi:namedview
     id="namedview1"
     pagecolor="#505050"
     bordercolor="#eeeeee"
     borderopacity="1"
     inkscape:showpageshadow="0"
     inkscape:pageopacity="0"
     inkscape:pagecheckerboard="0"
     inkscape:deskcolor="#505050"
     inkscape:document-units="mm"
     inkscape:zoom="0.35644322"
     inkscape:cx="255.30013"
     inkscape:cy="392.76943"
     inkscape:window-width="1448"
     inkscape:window-height="867"
     inkscape:window-x="12"
     inkscape:window-y="49"
     inkscape:window-maximized="0"
     inkscape:current-layer="g2" />
  <defs
     id="defs1" />
  <g
     inkscape:label="Layer 1"
     inkscape:groupmode="layer"
     id="layer1"
     transform="translate(47.895467,-72.133674)">
    <g
       id="g2">
      <g
         id="g3">
        <g
           id="g15"
           transform="matrix(0.98756298,0,0,1.0050227,445.91149,-136.33028)">
          <rect
             style="fill:#734f96;fill-opacity:1;stroke:none;stroke-width:0.755205;stroke-miterlimit:4;stroke-dasharray:none;stroke-opacity:1"
             id="rect881-8-2-5"
             width="324.02997"
             height="79.600189"
             x="-500.02579"
             y="207.42213"
             ry="14.804082" />
        </g>
        <g
           id="g1"
           transform="translate(-0.79963289,-0.33489833)">
          <path
             d="m -491.09962,274.1601 v -6.40579 h 3.28502 q 3.73671,0 4.64009,-0.86232 0.90338,-0.90338 0.90338,-4.35265 v -33.21976 q 0,-3.44927 -0.90338,-4.31159 -0.90338,-0.90338 -4.64009,-0.90338 h -3.28502 v -6.36472 h 52.47818 v 23.3647 h -6.48791 q 0,-4.39372 -0.57488,-7.47342 -0.57488,-3.12077 -1.7657,-5.2971 -1.23188,-2.25845 -4.02415,-3.24395 -2.79226,-0.98551 -8.41786,-0.98551 H -470.404 v 17.32848 h 1.4372 q 5.29709,0 6.9396,-1.80676 1.64251,-1.84782 2.05314,-8.41786 l 6.40578,-0.0411 v 28.29223 l -6.40578,-0.0411 q -0.36957,-7.2681 -2.05314,-9.3623 -1.64251,-2.13527 -6.85748,-2.13527 h -1.51932 v 14.61834 q 0,3.40821 0.90338,4.31159 0.94444,0.90338 4.72222,0.90338 h 3.94202 v 6.40579 z m 78.37439,-50.21974 h -1.10869 q -6.77535,0 -9.85506,4.06521 -3.07971,4.02415 -3.20289,13.09902 h -6.44685 v -23.3647 h 53.13518 v 23.3647 h -6.44685 q -0.0821,-8.95168 -3.16183,-13.05795 -3.0797,-4.10628 -9.81399,-4.10628 h -1.23188 v 38.59898 q 0,3.40821 0.90338,4.31159 0.94444,0.90338 4.72221,0.90338 h 4.80434 v 6.40579 h -32.727 v -6.40579 h 4.88646 q 3.73671,0 4.64009,-0.86232 0.90338,-0.90338 0.90338,-4.35265 z"
             id="text3-6"
             style="font-size:84.0965px;font-family:'Clarendon BT';-inkscape-font-specification:'Clarendon BT, Normal';letter-spacing:0.889px;fill:#ffffff;stroke:#000000;stroke-width:1.7;stroke-dasharray:none;stroke-opacity:1"
             aria-label="FT"
             transform="matrix(1.0050227,0,0,1.0050227,455.44144,-135.43896)" />
          <path
             d="m -234.52938,228.41621 c 0,-2.13527 -0.3285,-3.50403 -0.98551,-4.10628 -0.65701,-0.62963 -1.95733,-0.94444 -3.90096,-0.94444 h -2.17633 v -5.6256 h 17.16423 v 23.6932 c 2.16264,-2.71014 4.4074,-4.74959 6.73429,-6.11834 2.35427,-1.39613 4.73591,-2.0942 7.14492,-2.0942 4.54427,0 7.80192,1.12238 9.77293,3.36714 1.99839,2.24477 2.99758,5.99516 2.99758,11.25119 v 15.64491 c 0,2.13526 0.3285,3.5177 0.98551,4.14733 0.657,0.60225 1.95732,0.90338 3.90096,0.90338 h 2.34057 v 5.6256 h -23.85745 v -5.6256 h 1.68357 c 1.94364,0 3.23027,-0.30113 3.8599,-0.90338 0.65701,-0.62963 0.98551,-2.01207 0.98551,-4.14733 v -15.64491 c 0,-2.92914 -0.49275,-5.02334 -1.47826,-6.2826 -0.95813,-1.25925 -2.53221,-1.88888 -4.72222,-1.88888 -3.23027,0 -5.76247,1.23188 -7.59661,3.69564 -1.83413,2.43639 -2.7512,5.83091 -2.7512,10.18356 v 9.93719 c 0,2.13526 0.3285,3.5177 0.98551,4.14733 0.657,0.60225 1.95732,0.90338 3.90096,0.90338 h 1.68357 v 5.6256 h -23.73427 v -5.6256 h 2.17633 c 1.94363,0 3.24395,-0.30113 3.90096,-0.90338 0.65701,-0.62963 0.98551,-2.01207 0.98551,-4.14733 z"
             id="text3-6-8"
             style="font-size:84.0965px;font-family:'Clarendon BT';-inkscape-font-specification:'Clarendon BT, Normal';letter-spacing:0.889px;fill:#ffffff;stroke:#000000;stroke-width:1.7;stroke-dasharray:none;stroke-opacity:1"
             aria-label="rch"
             sodipodi:nodetypes="scscccccscsscsccccscsscscsscsccccscss"
             transform="matrix(1.0050227,0,0,1.0050227,455.44144,-135.43896)" />
          <path
             d="m -310.58276,263.49004 c 0,2.16137 0.31461,3.54301 0.94386,4.1449 0.65663,0.6019 1.94254,0.90285 3.85765,0.90285 h 4.18598 v 5.62231 h -26.71627 v -5.62231 h 2.79068 c 1.91509,0 3.1873,-0.30095 3.81659,-0.90285 0.62926,-0.60189 0.94388,-1.98353 0.94388,-4.1449 v -18.34431 c 0,-2.16137 -0.31462,-3.52932 -0.94388,-4.10384 -0.62929,-0.60192 -1.9015,-0.90288 -3.81659,-0.90288 h -2.79068 v -5.66335 h 17.72878 v 4.93395 c 1.31325,-2.35289 2.41969,-3.86589 4.58744,-5.19877 1.83025,-1.12539 3.96129,-1.07968 5.46729,-0.92329 2.13641,0.22194 4.0293,0.80817 5.4444,1.741 7.22943,4.76596 6.12578,8.92139 5.63068,9.42325 l -5.68278,5.76071 -3.97099,-4.19252 c 1.5113,-1.29929 2.26839,-2.39969 2.26839,-2.39969 0.33722,-1.58009 -0.56017,-2.49576 -1.55702,-3.36015 -1.44078,-1.24925 -3.31803,-1.43743 -5.10833,-1.0016 -1.91982,0.46736 -3.62388,2.40792 -4.68885,4.467 -1.51982,2.93852 -2.39023,5.77467 -2.39023,10.15216 z"
             style="font-size:84.0965px;font-family:'Clarendon BT';-inkscape-font-specification:'Clarendon BT, Normal';letter-spacing:0.889px;fill:#ffffff;stroke:#000000;stroke-width:1.7;stroke-dasharray:none;stroke-opacity:1"
             id="path1-6-7"
             sodipodi:nodetypes="scsccccsssscsccccssssccssssss"
             transform="matrix(1.0050227,0,0,1.0050227,455.44144,-135.43896)" />
          <path
             d="m -253.6913,257.69393 h 6.48791 c -0.30113,5.94041 -1.92995,10.41625 -4.88647,13.42752 -2.95651,2.98389 -7.24073,4.47584 -12.85264,4.47584 -6.26891,0 -11.2375,-1.91626 -14.90577,-5.74879 -3.6409,-3.83252 -5.46135,-9.00642 -5.46135,-15.52171 0,-6.32367 2.02576,-11.4702 6.07729,-15.4396 4.0789,-3.96939 9.37599,-5.95409 15.89128,-5.95409 4.84541,0 8.81481,1.69261 11.9082,4.0195 3.09339,2.32689 5.02726,4.64161 4.22946,8.08171 -0.28752,1.23976 -0.98866,1.86677 -1.72121,2.59044 l -4.26754,4.2286 -3.97099,-4.19252 2.79755,-2.92885 c 1.16169,-2.33953 -2.92927,-4.84341 -7.77481,-5.01069 -4.33428,-0.14963 -6.93429,0.9105 -9.3675,3.47285 -2.57593,2.71265 -3.40355,6.09561 -3.40355,11.05052 0,4.59903 1.93433,8.0483 3.68634,10.34781 1.75201,2.27214 4.38003,3.40821 7.88405,3.40821 2.84702,0 5.06441,-0.83494 6.65217,-2.50483 1.58775,-1.69726 2.58695,-4.2979 2.99758,-7.80192 z"
             style="font-size:84.0965px;font-family:'Clarendon BT';-inkscape-font-specification:'Clarendon BT, Normal';letter-spacing:0.889px;fill:#ffffff;stroke:#000000;stroke-width:1.7;stroke-dasharray:none;stroke-opacity:1"
             id="path1-4-7"
             sodipodi:nodetypes="cccscscsssscccsscscsc"
             transform="matrix(1.0050227,0,0,1.0050227,455.44144,-135.43896)" />
          <path
             id="path1-7-0-6-1-0-5-47"
             style="fill:#ff7f2a;stroke:#000000;stroke-width:1.22529;stroke-dasharray:none"
             d="m 111.99179,103.76348 c -1.42052,-2.25112 -0.95987,-5.471 -1.0313,-5.91433 -0.20877,-1.29595 -2.5462,2.21925 -2.4832,4.14579 0.0639,1.95388 1.67722,5.48852 -3.36012,6.85161 -2.01875,0.54627 -5.108,-2.41398 -4.96892,-7.46791 0.0552,-2.00971 4.91695,-7.13905 4.39378,-10.35893 -0.2596,-1.59774 -5.85143,-7.66569 -7.15923,-7.70218 -0.36617,-0.0102 -0.39634,0.45278 0.12031,1.61885 2.85529,5.6893 0.16266,7.19866 -2.35756,9.40914 -2.87878,2.52499 -6.29821,6.2876 -4.62912,10.69346 1.27217,3.35814 1.27827,4.85171 1.1028,7.48744 -0.36788,5.52595 -3.78432,4.4829 -4.91564,3.99276 -4.52182,-1.95904 -3.44801,-6.4635 -3.24666,-9.59963 0.3657,-5.70282 -4.88329,5.18086 -5.17947,11.89124 -0.27783,6.29571 3.48767,13.81194 8.78915,18.26109 3.80107,3.19001 8.31897,4.37848 13.0389,4.37848 3.89297,0 8.88192,-1.81121 11.64535,-4.09724 7.03437,-5.81912 7.67495,-11.85975 7.21674,-15.7083 -0.39771,-3.34027 -3.43305,-7.85117 -4.16744,-9.11963 -0.90884,-1.5698 -1.26147,-2.5067 -1.30739,-3.92513 -0.0582,-1.79765 -0.80525,-3.73403 -1.50098,-4.83658 z"
             sodipodi:nodetypes="sscsssscsssscssssssss" />
        </g>
      </g>
    </g>
  </g>
</svg>
